<?xml version="1.0" standalone="no"?>
<!DOCTYPE svg PUBLIC "-//W3C//DTD SVG 20010904//EN"
 "http://www.w3.org/TR/2001/REC-SVG-20010904/DTD/svg10.dtd">
<svg version="1.0" xmlns="http://www.w3.org/2000/svg"
 width="1138.000000pt" height="860.000000pt" viewBox="0 0 1138.000000 860.000000"
 preserveAspectRatio="xMidYMid meet">

<g transform="translate(0.000000,860.000000) scale(0.100000,-0.100000)"
fill="#000000" stroke="none">
<path d="M0 4300 l0 -4300 5690 0 5690 0 0 4300 0 4300 -5690 0 -5690 0 0
-4300z m4896 2783 c110 -119 117 -299 18 -429 l-27 -35 20 -49 21 -49 -30 -12
c-17 -7 -59 -40 -94 -73 -35 -34 -70 -65 -79 -71 -8 -5 -49 -34 -90 -63 -41
-29 -75 -51 -75 -48 0 3 27 24 60 47 43 30 57 45 50 54 -5 6 -49 30 -98 53
l-88 42 7 80 c5 56 3 102 -7 148 -18 88 -18 111 5 148 21 34 49 48 133 64 70
14 96 38 142 128 32 64 66 102 89 102 5 0 25 -17 43 -37z m1769 -483 c34 -13
240 -206 255 -239 6 -14 15 -84 20 -156 7 -111 6 -133 -8 -147 -17 -20 -128
-78 -149 -78 -24 0 -74 30 -120 73 -41 38 -44 43 -38 78 6 37 6 38 -38 57 -94
42 -164 143 -174 251 -8 86 2 131 30 131 12 0 54 9 92 19 84 23 96 24 130 11z
m-1730 -233 c-26 -60 -30 -63 -55 -46 -12 8 -11 9 6 5 17 -5 24 2 43 49 13 31
25 54 27 52 2 -2 -7 -29 -21 -60z m-115 -19 c10 -6 7 -7 -10 -2 -14 3 -32 11
-40 16 -10 6 -7 7 10 2 14 -3 32 -11 40 -16z m-295 -88 c27 -7 27 -8 5 -8 -14
0 -36 4 -50 8 -20 6 -21 8 -5 8 11 0 34 -4 50 -8z m4162 -220 c38 -23 41 -35
45 -156 2 -74 7 -96 22 -113 25 -28 36 -27 81 9 45 36 49 36 76 9 23 -23 23
-39 3 -229 -5 -49 -3 -57 16 -75 17 -15 24 -17 27 -7 3 8 17 -1 38 -25 l33
-38 -59 -86 c-124 -181 -227 -279 -292 -279 -26 0 -55 38 -104 137 -59 118
-67 177 -30 231 14 20 28 51 32 68 6 30 3 33 -42 55 -59 29 -123 93 -154 156
-21 41 -24 63 -24 148 0 90 3 105 28 153 26 49 30 53 45 39 31 -27 55 -28 97
-2 50 31 117 33 162 5z m-5051 -90 c18 -50 17 -148 -2 -204 -9 -27 -37 -70
-66 -102 l-50 -55 31 -63 c32 -65 76 -108 131 -127 l30 -11 -28 -32 c-219
-259 -255 -296 -321 -329 -63 -31 -70 -32 -186 -31 -133 1 -199 14 -215 45
-19 34 -1 125 41 208 43 84 118 191 135 191 19 0 62 55 72 93 10 35 9 38 -17
51 -42 22 -144 140 -129 150 2 1 29 15 60 30 42 20 77 49 125 103 38 41 82 82
98 91 19 11 68 19 135 23 146 8 141 9 156 -31z m-636 -530 c0 -5 -30 -76 -66
-157 -36 -82 -76 -184 -89 -228 l-23 -80 -16 55 c-31 104 -41 193 -27 255 20
91 69 132 186 158 33 8 35 7 35 -3z m2960 -50 c91 -16 170 -32 176 -34 6 -2
46 -51 89 -109 l78 -105 57 5 c53 5 58 4 78 -22 26 -33 29 -100 7 -133 -17
-24 -31 -1 146 -241 38 -52 69 -98 69 -102 0 -26 -180 -39 -253 -18 -72 20
-189 80 -218 112 -22 24 -36 31 -58 29 -24 -3 -29 0 -29 20 0 24 -25 122 -44
171 -6 16 -18 27 -29 27 -16 0 -78 97 -243 383 -34 58 -45 57 174 17z m-2064
-44 c108 -50 168 -162 230 -430 24 -105 62 -258 83 -341 22 -82 42 -172 46
-200 3 -27 17 -84 30 -125 27 -89 40 -150 30 -150 -13 0 -51 23 -76 47 l-27
24 -23 -33 c-13 -18 -57 -73 -99 -123 -81 -96 -176 -220 -229 -297 -23 -35
-39 -48 -56 -48 -37 0 -128 37 -175 71 -34 25 -41 35 -37 55 2 13 3 24 2 24
-2 0 -32 -13 -67 -30 -71 -34 -113 -38 -122 -14 -15 39 83 97 234 139 156 44
166 51 256 188 75 113 124 211 124 247 -1 14 -45 142 -99 284 l-97 260 -43 14
c-59 20 -114 77 -131 136 -22 80 8 207 66 276 48 56 99 64 180 26z m2827 -10
c42 -24 137 -119 137 -136 0 -4 14 -13 30 -20 37 -15 60 -46 60 -78 0 -23 -38
-122 -47 -122 -23 0 -161 77 -208 117 -33 28 -71 54 -85 58 -83 25 -140 84
-140 144 0 28 6 35 43 52 58 27 149 21 210 -15z m1606 -750 l34 -27 -68 3
c-38 2 -70 8 -72 14 -2 6 6 23 18 38 18 23 23 25 38 13 9 -7 31 -26 50 -41z
m627 -23 l75 -38 -3 -45 -3 -45 -140 -37 c-77 -21 -153 -42 -170 -46 -28 -8
-30 -12 -30 -53 0 -24 4 -59 9 -76 9 -41 1 -41 -99 -10 -90 29 -98 44 -103
195 -6 164 -9 158 90 159 62 0 96 6 133 22 73 31 145 24 241 -26z m-6012 -318
c0 -126 -5 -265 -11 -308 -9 -61 -8 -89 3 -135 7 -31 13 -68 14 -81 0 -21 -3
-23 -32 -17 -41 9 -65 9 -104 1 l-31 -7 -5 64 c-6 81 2 151 46 383 30 162 57
263 91 349 8 18 8 18 19 0 7 -13 11 -98 10 -249z m2729 196 c-13 -56 -77 -203
-104 -241 -29 -40 -72 -61 -90 -43 -8 8 -49 252 -49 293 0 12 21 15 125 16
l125 1 -7 -26z m-1743 -1020 c0 -17 -4 -33 -10 -36 -11 -7 -25 39 -15 54 12
21 25 11 25 -18z m-955 -151 c99 -16 217 -33 263 -37 45 -3 85 -10 88 -14 6
-10 -29 -131 -57 -196 -11 -25 -53 -96 -93 -157 -41 -61 -123 -208 -182 -326
-123 -248 -128 -266 -94 -400 14 -55 23 -132 27 -220 5 -115 3 -147 -15 -220
-22 -88 -52 -369 -52 -478 0 -35 5 -72 10 -82 8 -15 6 -24 -7 -38 -10 -10 -26
-33 -35 -51 -24 -43 -44 -48 -76 -19 -15 14 -41 33 -59 43 -22 13 -33 28 -38
51 -3 19 -15 40 -26 48 -18 12 -22 30 -30 163 -5 81 -16 209 -24 283 -8 74
-24 238 -35 363 -13 141 -26 239 -35 256 -8 16 -19 57 -25 92 -10 52 -9 76 3
129 39 167 203 701 249 809 15 36 22 42 41 38 12 -4 103 -20 202 -37z m975
-53 c0 -2 -9 -30 -20 -63 -36 -102 -49 -164 -80 -378 -35 -241 -39 -402 -14
-535 13 -66 15 -124 11 -251 -6 -208 -30 -309 -118 -489 -75 -154 -84 -180
-93 -256 -14 -126 -26 -141 -67 -86 -12 17 -34 34 -48 40 -41 15 -84 24 -103
22 -22 -3 -22 -3 1 50 37 84 49 207 56 574 l6 350 -24 55 c-38 87 -56 178 -67
337 -6 81 -17 229 -25 328 -8 99 -15 199 -17 223 l-2 43 194 4 c107 3 236 11
285 19 100 15 125 18 125 13z m2316 -494 l9 -58 121 2 122 3 6 -31 c3 -18 6
-97 6 -178 0 -119 -7 -199 -41 -436 -46 -315 -47 -387 -8 -426 28 -28 36 -57
33 -114 -5 -78 -10 -90 -60 -128 -70 -55 -144 -179 -144 -241 0 -23 -57 -64
-97 -70 -109 -16 -123 -16 -152 -2 -16 9 -32 20 -36 26 -8 13 11 47 46 85 16
16 36 53 44 81 8 29 39 98 67 155 53 103 53 105 56 209 4 114 -8 327 -33 599
-21 224 -10 528 20 561 10 11 21 20 25 20 4 0 12 -26 16 -57z m1028 16 c3 -17
6 -93 6 -168 0 -154 -3 -167 -115 -557 l-64 -221 -2 -144 c-1 -79 -1 -178 0
-219 2 -138 -10 -283 -27 -319 -19 -39 -55 -69 -92 -76 -49 -11 -145 -8 -169
4 -21 11 -23 18 -18 57 2 25 12 53 21 63 13 14 18 55 25 202 8 151 14 198 35
264 13 44 29 98 35 120 8 33 16 249 33 860 2 79 5 85 42 85 45 0 108 19 131
40 23 21 75 38 121 39 28 1 32 -3 38 -30z m-2599 -714 c30 -18 54 -24 96 -25
l55 0 16 -47 c21 -62 30 -115 20 -129 -4 -6 -83 -50 -177 -99 -165 -85 -172
-88 -240 -89 -38 0 -87 3 -107 7 -32 7 -38 12 -38 33 0 40 16 61 78 100 31 20
70 48 85 63 30 27 97 131 97 149 0 6 4 22 10 36 13 34 51 34 105 1z m747 -52
c20 -21 56 -69 81 -108 50 -77 91 -120 152 -155 39 -24 85 -68 85 -82 0 -5
-28 -8 -62 -9 -35 0 -99 -4 -142 -8 -76 -7 -80 -6 -120 22 -23 16 -62 49 -87
74 -31 30 -67 52 -110 68 -63 22 -64 23 -61 56 7 71 50 127 86 113 10 -4 28 7
49 30 46 49 81 48 129 -1z m5102 -603 c14 -5 26 -15 26 -21 0 -6 20 -39 44
-73 79 -111 95 -165 57 -186 -38 -20 -318 -2 -440 29 -55 13 -68 21 -84 48
-10 18 -19 54 -20 80 l-2 48 72 7 c41 4 91 17 114 29 41 20 141 47 186 48 12
1 33 -3 47 -9z m-4864 -170 c-12 -16 -24 -30 -26 -30 -3 0 4 14 16 30 12 17
24 30 26 30 3 0 -4 -13 -16 -30z m2270 -237 l22 -28 -36 -3 c-20 -2 -52 -2
-72 0 l-36 3 22 28 c14 18 31 27 50 27 19 0 36 -9 50 -27z m1096 -8 c41 -24
72 -61 61 -72 -3 -2 -55 3 -116 13 -117 19 -128 27 -91 64 29 29 92 26 146 -5z
m-1157 -57 c20 0 48 5 63 11 15 6 30 7 32 2 3 -5 33 -16 66 -25 46 -13 69 -15
90 -7 28 9 30 9 35 -27 4 -20 10 -49 15 -64 11 -35 5 -38 -130 -71 -229 -56
-449 -72 -535 -37 l-30 12 56 23 c85 36 117 59 194 134 59 60 72 68 89 59 10
-6 35 -10 55 -10z m1020 -23 c36 -24 55 -30 100 -30 31 0 66 4 79 8 20 8 22 5
22 -30 0 -21 11 -64 24 -95 l23 -57 -51 -5 c-67 -8 -258 -3 -272 6 -8 5 -9 22
-2 55 8 43 4 131 -8 175 -7 23 28 12 85 -27z"/>
<path d="M4706 1839 c12 -59 24 -83 35 -72 13 13 -4 75 -27 93 -12 11 -13 7
-8 -21z"/>
<path d="M5408 1784 c-9 -11 -20 -32 -24 -47 l-7 -29 50 36 c56 40 71 43 114
20 39 -20 49 -11 14 12 -15 10 -50 19 -78 22 -42 3 -55 0 -69 -14z"/>
</g>
</svg>
